<?xml version="1.0" encoding="UTF-8"?>
<svg width="135px" height="135px" viewBox="0 0 135 135" version="1.1" xmlns="http://www.w3.org/2000/svg" xmlns:xlink="http://www.w3.org/1999/xlink">
    <!-- Generator: Sketch 53.2 (72643) - https://sketchapp.com -->
    <title>favicon</title>
    <desc>Created with Sketch.</desc>
    <defs>
        <linearGradient x1="58.2990398%" y1="0%" x2="41.7009602%" y2="100%" id="linearGradient-1">
            <stop stop-color="#5A6300" offset="0%"></stop>
            <stop stop-color="#E7FF00" offset="100%"></stop>
        </linearGradient>
    </defs>
    <g id="favicon" stroke="none" stroke-width="1" fill="none" fill-rule="evenodd">
        <rect fill="#171719" x="0" y="0" width="135" height="135"></rect>
        <g id="Group-2" transform="translate(40.500000, 31.860000)">
            <path d="M17.82,27.54 L17.82,27.54 L17.82,53.46 C17.82,63.3017142 9.84171424,71.28 -5.68434189e-14,71.28 L-5.68434189e-14,71.28 L-5.68434189e-14,45.36 C-5.80486812e-14,35.5182858 7.97828576,27.54 17.82,27.54 Z" id="Rectangle" fill="url(#linearGradient-1)"></path>
            <path d="M17.82,0 L54,0 L54,0 C54,9.84171424 46.0217142,17.82 36.18,17.82 L-5.68434189e-14,17.82 L-5.68434189e-14,17.82 C-5.80486812e-14,7.97828576 7.97828576,1.20526238e-15 17.82,0 Z" id="Rectangle" fill="#E7FF00"></path>
            <path d="M17.82,27 L44.82,27 L44.82,27 C44.82,36.8417142 36.8417142,44.82 27,44.82 L-5.68434189e-14,44.82 L-5.68434189e-14,44.82 C-5.80486812e-14,34.9782858 7.97828576,27 17.82,27 Z" id="Rectangle" fill="#E7FF00"></path>
        </g>
    </g>
</svg>